HIERARCHY
ROOT Hips
{
  OFFSET 42.262 36.666 -259.355
  CHANNELS 6 Xposition Yposition Zposition Zrotation Xrotation Yrotation
  JOINT LeftUpLeg
  {
    OFFSET 5.591 -5.533 2.060
    CHANNELS 6 Xposition Yposition Zposition Zrotation Xrotation Yrotation
    JOINT LeftLeg
    {
      OFFSET 0.000 -45.911 0.000
      CHANNELS 6 Xposition Yposition Zposition Zrotation Xrotation Yrotation
      JOINT LeftFoot
      {
        OFFSET 0.000 -44.042 -0.000
        CHANNELS 6 Xposition Yposition Zposition Zrotation Xrotation Yrotation
        End Site
        {
          OFFSET -0.000 -7.847 4.530
        }
      }
    }
  }
  JOINT RightUpLeg
  {
    OFFSET -4.959 -5.345 5.055
    CHANNELS 6 Xposition Yposition Zposition Zrotation Xrotation Yrotation
    JOINT RightLeg
    {
      OFFSET 0.000 -48.417 0.000
      CHANNELS 6 Xposition Yposition Zposition Zrotation Xrotation Yrotation
      JOINT RightFoot
      {
        OFFSET -0.000 -42.547 -0.000
        CHANNELS 6 Xposition Yposition Zposition Zrotation Xrotation Yrotation
        End Site
        {
          OFFSET -0.000 -7.433 4.291
        }
      }
    }
  }
  JOINT Spine
  {
    OFFSET 0.000 5.424 -5.424
    CHANNELS 6 Xposition Yposition Zposition Zrotation Xrotation Yrotation
    JOINT LeftShoulder
    {
      OFFSET -0.000 25.762 0.000
      CHANNELS 6 Xposition Yposition Zposition Zrotation Xrotation Yrotation
      JOINT LeftArm
      {
        OFFSET 15.162 -0.000 -0.000
        CHANNELS 6 Xposition Yposition Zposition Zrotation Xrotation Yrotation
        JOINT LeftForeArm
        {
          OFFSET 24.727 0.000 0.000
          CHANNELS 6 Xposition Yposition Zposition Zrotation Xrotation Yrotation
          JOINT LeftHand
          {
            OFFSET 24.361 -0.000 -0.000
            CHANNELS 6 Xposition Yposition Zposition Zrotation Xrotation Yrotation
            JOINT LeftHandThumb1
            {
            OFFSET 4.970 -0.620 3.390
            CHANNELS 6 Xposition Yposition Zposition Zrotation Xrotation Yrotation
              JOINT LeftHandThumb2
              {
              OFFSET 2.150 -0.000 0.000
              CHANNELS 6 Xposition Yposition Zposition Zrotation Xrotation Yrotation
                JOINT LeftHandThumb3
                {
                OFFSET 2.200 -0.000 0.000
                CHANNELS 6 Xposition Yposition Zposition Zrotation Xrotation Yrotation
                  JOINT LeftHandThumb4
                  {
                  OFFSET 1.700 -0.000 0.000
                  CHANNELS 6 Xposition Yposition Zposition Zrotation Xrotation Yrotation
                  }
                }
              }
            }
            JOINT LeftHandIndex1
            {
            OFFSET 8.730 0.680 2.070
            CHANNELS 6 Xposition Yposition Zposition Zrotation Xrotation Yrotation
              JOINT LeftHandIndex2
              {
              OFFSET 2.670 -0.000 0.000
              CHANNELS 6 Xposition Yposition Zposition Zrotation Xrotation Yrotation
                JOINT LeftHandIndex3
                {
                OFFSET 2.130 -0.000 0.000
                CHANNELS 6 Xposition Yposition Zposition Zrotation Xrotation Yrotation
                  JOINT LeftHandIndex4
                  {
                  OFFSET 1.800 -0.000 0.000
                  CHANNELS 6 Xposition Yposition Zposition Zrotation Xrotation Yrotation
                  }
                }
              }
            }
            JOINT LeftHandMiddle1
            {
            OFFSET 9.220 0.670 0.550
            CHANNELS 6 Xposition Yposition Zposition Zrotation Xrotation Yrotation
              JOINT LeftHandMiddle2
              {
              OFFSET 2.660 -0.000 0.000
              CHANNELS 6 Xposition Yposition Zposition Zrotation Xrotation Yrotation
                JOINT LeftHandMiddle3
                {
                OFFSET 2.280 -0.000 0.000
                CHANNELS 6 Xposition Yposition Zposition Zrotation Xrotation Yrotation
                  JOINT LeftHandMiddle4
                  {
                  OFFSET 1.500 -0.000 0.000
                  CHANNELS 6 Xposition Yposition Zposition Zrotation Xrotation Yrotation
                  }
                }
              }
            }
            JOINT LeftHandRing1
            {
            OFFSET 9.250 0.670 -1.130
            CHANNELS 6 Xposition Yposition Zposition Zrotation Xrotation Yrotation
              JOINT LeftHandRing2
              {
              OFFSET 2.470 -0.000 0.000
              CHANNELS 6 Xposition Yposition Zposition Zrotation Xrotation Yrotation
                JOINT LeftHandRing3
                {
                OFFSET 2.210 -0.000 0.000
                CHANNELS 6 Xposition Yposition Zposition Zrotation Xrotation Yrotation
                  JOINT LeftHandRing4
                  {
                  OFFSET 1.800 -0.000 0.000
                  CHANNELS 6 Xposition Yposition Zposition Zrotation Xrotation Yrotation
                  }
                }
              }
            }
            JOINT LeftHandPinky1
            {
            OFFSET 9.350 0.660 -2.720
            CHANNELS 6 Xposition Yposition Zposition Zrotation Xrotation Yrotation
              JOINT LeftHandPinky2
              {
              OFFSET 1.630 -0.000 0.000
              CHANNELS 6 Xposition Yposition Zposition Zrotation Xrotation Yrotation
                JOINT LeftHandPinky3
                {
                OFFSET 1.710 -0.000 0.000
                CHANNELS 6 Xposition Yposition Zposition Zrotation Xrotation Yrotation
                  JOINT LeftHandPinky4
                  {
                  OFFSET 1.800 -0.000 0.000
                  CHANNELS 6 Xposition Yposition Zposition Zrotation Xrotation Yrotation
                  }
                }
              }
            }
          }
        }
      }
    }
    JOINT RightShoulder
    {
      OFFSET -0.000 25.762 0.000
      CHANNELS 6 Xposition Yposition Zposition Zrotation Xrotation Yrotation
      JOINT RightArm
      {
        OFFSET -17.956 0.000 -0.000
        CHANNELS 6 Xposition Yposition Zposition Zrotation Xrotation Yrotation
        JOINT RightForeArm
        {
          OFFSET -24.737 0.000 0.000
          CHANNELS 6 Xposition Yposition Zposition Zrotation Xrotation Yrotation
          JOINT RightHand
          {
            OFFSET -22.504 0.000 -0.000
            CHANNELS 6 Xposition Yposition Zposition Zrotation Xrotation Yrotation
            JOINT RightHandThumb1
            {
            OFFSET -4.970 -0.620 3.390
            CHANNELS 6 Xposition Yposition Zposition Zrotation Xrotation Yrotation
              JOINT RightHandThumb2
              {
              OFFSET -2.150 0.000 0.000
              CHANNELS 6 Xposition Yposition Zposition Zrotation Xrotation Yrotation
                JOINT RightHandThumb3
                {
                OFFSET -2.200 0.000 0.000
                CHANNELS 6 Xposition Yposition Zposition Zrotation Xrotation Yrotation
                  JOINT RightHandThumb4
                  {
                  OFFSET -1.700 0.000 0.000
                  CHANNELS 6 Xposition Yposition Zposition Zrotation Xrotation Yrotation
                  }
                }
              }
            }
            JOINT RightHandIndex1
            {
            OFFSET -8.730 0.680 2.070
            CHANNELS 6 Xposition Yposition Zposition Zrotation Xrotation Yrotation
              JOINT RightHandIndex2
              {
              OFFSET -2.670 0.000 0.000
              CHANNELS 6 Xposition Yposition Zposition Zrotation Xrotation Yrotation
                JOINT RightHandIndex3
                {
                OFFSET -2.130 0.000 0.000
                CHANNELS 6 Xposition Yposition Zposition Zrotation Xrotation Yrotation
                  JOINT RightHandIndex4
                  {
                  OFFSET -1.800 0.000 0.000
                  CHANNELS 6 Xposition Yposition Zposition Zrotation Xrotation Yrotation
                  }
                }
              }
            }
            JOINT RightHandMiddle1
            {
            OFFSET -9.220 0.670 0.550
            CHANNELS 6 Xposition Yposition Zposition Zrotation Xrotation Yrotation
              JOINT RightHandMiddle2
              {
              OFFSET -2.660 0.000 0.000
              CHANNELS 6 Xposition Yposition Zposition Zrotation Xrotation Yrotation
                JOINT RightHandMiddle3
                {
                OFFSET -2.280 0.000 0.000
                CHANNELS 6 Xposition Yposition Zposition Zrotation Xrotation Yrotation
                  JOINT RightHandMiddle4
                  {
                  OFFSET -1.500 0.000 0.000
                  CHANNELS 6 Xposition Yposition Zposition Zrotation Xrotation Yrotation
                  }
                }
              }
            }
            JOINT RightHandRing1
            {
            OFFSET -9.250 0.670 -1.130
            CHANNELS 6 Xposition Yposition Zposition Zrotation Xrotation Yrotation
              JOINT RightHandRing2
              {
              OFFSET -2.470 0.000 0.000
              CHANNELS 6 Xposition Yposition Zposition Zrotation Xrotation Yrotation
                JOINT RightHandRing3
                {
                OFFSET -2.210 0.000 0.000
                CHANNELS 6 Xposition Yposition Zposition Zrotation Xrotation Yrotation
                  JOINT RightHandRing4
                  {
                  OFFSET -1.800 0.000 0.000
                  CHANNELS 6 Xposition Yposition Zposition Zrotation Xrotation Yrotation
                  }
                }
              }
            }
            JOINT RightHandPinky1
            {
            OFFSET -9.350 0.660 -2.720
            CHANNELS 6 Xposition Yposition Zposition Zrotation Xrotation Yrotation
              JOINT RightHandPinky2
              {
              OFFSET -1.630 0.000 0.000
              CHANNELS 6 Xposition Yposition Zposition Zrotation Xrotation Yrotation
                JOINT RightHandPinky3
                {
                OFFSET -1.710 0.000 0.000
                CHANNELS 6 Xposition Yposition Zposition Zrotation Xrotation Yrotation
                  JOINT RightHandPinky4
                  {
                  OFFSET -1.800 0.000 0.000
                  CHANNELS 6 Xposition Yposition Zposition Zrotation Xrotation Yrotation
                  }
                }
              }
            }
          }
        }
      }
    }
    JOINT Neck
    {
      OFFSET -0.000 25.762 0.000
      CHANNELS 6 Xposition Yposition Zposition Zrotation Xrotation Yrotation
      JOINT Head
      {
        OFFSET -0.000 29.850 -0.000
        CHANNELS 6 Xposition Yposition Zposition Zrotation Xrotation Yrotation
        End Site
        {
          OFFSET -0.000 0.119 -0.000
        }
      }
    }
  }
}
MOTION
Frames:	6
Frame Time:	0.0333333
69.5643 41.6744 -265.671 14.0679 32.4599 -30.8791 7.76086 -5.7725 4.17986 17.5976 -33.4121 9.48398 -8.9407e-06 -50.439 2.38419e-05 -1.48 13.8297 3.51705e-06 0 -41.5095 -2.38419e-05 2.77292 -8.51534 1.96553 -7.28323 -6.04961 5.05192 -11.7061 -31.2163 -3.80796 1.78814e-05 -50.8815 2.38419e-05 5.43827 6.16286 -0.585564 -2.38419e-05 -41.0613 4.76837e-05 -11.9175 -9.56654 -9.01347 3.57628e-05 5.09487 -5.09479 1.13136 -34.5492 0.886307 -1.19209e-05 25.7619 0 0.775966 1.07789e-05 -1.12718 16.5428 1.19209e-05 0 -60.8908 59.9574 -9.31225 27.0318 0 0 3.90964e-06 2.56132e-06 -23.5401 27.7671 2.38419e-05 0 -4.07672 0.049237 -1.30908 0.0062 0.0497 0.0339 0 0 0 0 0.0215 0 0 0 0 0 0.022 0 0 0 0 0 0.017 0 0 0 0 -0.0068 0.0873 0.0207 0 0 0 0 0.0267 0 0 0 0 0 0.0213 0 0 0 0 0 0.018 0 0 0 0 -0.0067 0.0922 0.0055 0 0 0 0 0.0266 0 0 0 0 0 0.0228 0 0 0 0 0 0.015 0 0 0 0 -0.0067 0.0925 -0.0113 0 0 0 0 0.0247 0 0 0 0 0 0.0221 0 0 0 0 0 0.018 0 0 0 0 -0.0066 0.0935 -0.0272 0 0 0 0 0.0163 0 0 0 0 0 0.0171 0 0 0 0 0 0.018 0 0 0 0 -1.19209e-05 25.7619 0 0.0324884 1.17394e-06 1.07418 -17.359 0 4.76837e-05 83.6541 24.2166 -5.54312 -27.3079 8.9407e-06 0 2.75629e-06 7.33712e-08 28.3169 -25.2677 0 -7.15256e-05 6.50419 -0.0034424 0.585279 -0.0062 0.0497 0.0339 0 0 0 0 0.0215 0 0 0 0 0 0.022 0 0 0 0 0 0.017 0 0 0 0 0.0068 0.0873 0.0207 0 0 0 0 0.0267 0 0 0 0 0 0.0213 0 0 0 0 0 0.018 0 0 0 0 0.0067 0.0922 0.0055 0 0 0 0 0.0266 0 0 0 0 0 0.0228 0 0 0 0 0 0.015 0 0 0 0 0.0067 0.0925 -0.0113 0 0 0 0 0.0247 0 0 0 0 0 0.0221 0 0 0 0 0 0.018 0 0 0 0 0.0066 0.0935 -0.0272 0 0 0 0 0.0163 0 0 0 0 0 0.0171 0 0 0 0 0 0.018 0 0 0 0 -1.19209e-05 25.7619 0 9.18811 8.10603 -1.30657 -5.96046e-06 27.4445 4.76837e-05 1.15259e-05 -1.06722e-05 0 
69.5643 41.6744 -265.671 14.0679 32.4599 -30.8791 7.76086 -5.7725 4.17986 17.5976 -33.4121 9.48398 -8.9407e-06 -50.439 2.38419e-05 -1.48 13.8297 3.51705e-06 0 -41.5095 -2.38419e-05 2.77292 -8.51534 1.96553 -7.28323 -6.04961 5.05192 -11.7061 -31.2163 -3.80796 1.78814e-05 -50.8815 2.38419e-05 5.43827 6.16286 -0.585564 -2.38419e-05 -41.0613 4.76837e-05 -11.9175 -9.56654 -9.01347 3.57628e-05 5.09487 -5.09479 1.13136 -34.5492 0.886307 -1.19209e-05 25.7619 0 0.775966 1.07789e-05 -1.12718 16.5428 1.19209e-05 0 -60.8908 59.9574 -9.31225 27.0318 0 0 3.90964e-06 2.56132e-06 -23.5401 27.7671 2.38419e-05 0 -4.07672 0.049237 -1.30908 0.0062 0.0497 0.0339 0 0 0 0 0.0215 0 0 0 0 0 0.022 0 0 0 0 0 0.017 0 0 0 0 -0.0068 0.0873 0.0207 0 0 0 0 0.0267 0 0 0 0 0 0.0213 0 0 0 0 0 0.018 0 0 0 0 -0.0067 0.0922 0.0055 0 0 0 0 0.0266 0 0 0 0 0 0.0228 0 0 0 0 0 0.015 0 0 0 0 -0.0067 0.0925 -0.0113 0 0 0 0 0.0247 0 0 0 0 0 0.0221 0 0 0 0 0 0.018 0 0 0 0 -0.0066 0.0935 -0.0272 0 0 0 0 0.0163 0 0 0 0 0 0.0171 0 0 0 0 0 0.018 0 0 0 0 -1.19209e-05 25.7619 0 0.0324884 1.17394e-06 1.07418 -17.359 0 4.76837e-05 83.6541 24.2166 -5.54312 -27.3079 8.9407e-06 0 2.75629e-06 7.33712e-08 28.3169 -25.2677 0 -7.15256e-05 6.50419 -0.0034424 0.585279 -0.0062 0.0497 0.0339 0 0 0 0 0.0215 0 0 0 0 0 0.022 0 0 0 0 0 0.017 0 0 0 0 0.0068 0.0873 0.0207 0 0 0 0 0.0267 0 0 0 0 0 0.0213 0 0 0 0 0 0.018 0 0 0 0 0.0067 0.0922 0.0055 0 0 0 0 0.0266 0 0 0 0 0 0.0228 0 0 0 0 0 0.015 0 0 0 0 0.0067 0.0925 -0.0113 0 0 0 0 0.0247 0 0 0 0 0 0.0221 0 0 0 0 0 0.018 0 0 0 0 0.0066 0.0935 -0.0272 0 0 0 0 0.0163 0 0 0 0 0 0.0171 0 0 0 0 0 0.018 0 0 0 0 -1.19209e-05 25.7619 0 9.18811 8.10603 -1.30657 -5.96046e-06 27.4445 4.76837e-05 1.15259e-05 -1.06722e-05 0 
69.5643 41.6744 -265.671 14.0679 32.4599 -30.8791 7.76086 -5.7725 4.17986 17.5976 -33.4121 9.48398 -8.9407e-06 -50.439 2.38419e-05 -1.48 13.8297 3.51705e-06 0 -41.5095 -2.38419e-05 2.77292 -8.51534 1.96553 -7.28323 -6.04961 5.05192 -11.7061 -31.2163 -3.80796 1.78814e-05 -50.8815 2.38419e-05 5.43827 6.16286 -0.585564 -2.38419e-05 -41.0613 4.76837e-05 -11.9175 -9.56654 -9.01347 3.57628e-05 5.09487 -5.09479 1.13136 -34.5492 0.886307 -1.19209e-05 25.7619 0 0.775966 1.07789e-05 -1.12718 16.5428 1.19209e-05 0 -60.8908 59.9574 -9.31225 27.0318 0 0 3.90964e-06 2.56132e-06 -23.5401 27.7671 2.38419e-05 0 -4.07672 0.049237 -1.30908 0.0062 0.0497 0.0339 0 0 0 0 0.0215 0 0 0 0 0 0.022 0 0 0 0 0 0.017 0 0 0 0 -0.0068 0.0873 0.0207 0 0 0 0 0.0267 0 0 0 0 0 0.0213 0 0 0 0 0 0.018 0 0 0 0 -0.0067 0.0922 0.0055 0 0 0 0 0.0266 0 0 0 0 0 0.0228 0 0 0 0 0 0.015 0 0 0 0 -0.0067 0.0925 -0.0113 0 0 0 0 0.0247 0 0 0 0 0 0.0221 0 0 0 0 0 0.018 0 0 0 0 -0.0066 0.0935 -0.0272 0 0 0 0 0.0163 0 0 0 0 0 0.0171 0 0 0 0 0 0.018 0 0 0 0 -1.19209e-05 25.7619 0 0.0324884 1.17394e-06 1.07418 -17.359 0 4.76837e-05 83.6541 24.2166 -5.54312 -27.3079 8.9407e-06 0 2.75629e-06 7.33712e-08 28.3169 -25.2677 0 -7.15256e-05 6.50419 -0.0034424 0.585279 -0.0062 0.0497 0.0339 0 0 0 0 0.0215 0 0 0 0 0 0.022 0 0 0 0 0 0.017 0 0 0 0 0.0068 0.0873 0.0207 0 0 0 0 0.0267 0 0 0 0 0 0.0213 0 0 0 0 0 0.018 0 0 0 0 0.0067 0.0922 0.0055 0 0 0 0 0.0266 0 0 0 0 0 0.0228 0 0 0 0 0 0.015 0 0 0 0 0.0067 0.0925 -0.0113 0 0 0 0 0.0247 0 0 0 0 0 0.0221 0 0 0 0 0 0.018 0 0 0 0 0.0066 0.0935 -0.0272 0 0 0 0 0.0163 0 0 0 0 0 0.0171 0 0 0 0 0 0.018 0 0 0 0 -1.19209e-05 25.7619 0 9.18811 8.10603 -1.30657 -5.96046e-06 27.4445 4.76837e-05 1.15259e-05 -1.06722e-05 0 
69.5643 41.6744 -265.671 14.0679 32.4599 -30.8791 7.76086 -5.7725 4.17986 17.5976 -33.4121 9.48398 -8.9407e-06 -50.439 2.38419e-05 -1.48 13.8297 3.51705e-06 0 -41.5095 -2.38419e-05 2.77292 -8.51534 1.96553 -7.28323 -6.04961 5.05192 -11.7061 -31.2163 -3.80796 1.78814e-05 -50.8815 2.38419e-05 5.43827 6.16286 -0.585564 -2.38419e-05 -41.0613 4.76837e-05 -11.9175 -9.56654 -9.01347 3.57628e-05 5.09487 -5.09479 1.13136 -34.5492 0.886307 -1.19209e-05 25.7619 0 0.775966 1.07789e-05 -1.12718 16.5428 1.19209e-05 0 -60.8908 59.9574 -9.31225 27.0318 0 0 3.90964e-06 2.56132e-06 -23.5401 27.7671 2.38419e-05 0 -4.07672 0.049237 -1.30908 0.0062 0.0497 0.0339 0 0 0 0 0.0215 0 0 0 0 0 0.022 0 0 0 0 0 0.017 0 0 0 0 -0.0068 0.0873 0.0207 0 0 0 0 0.0267 0 0 0 0 0 0.0213 0 0 0 0 0 0.018 0 0 0 0 -0.0067 0.0922 0.0055 0 0 0 0 0.0266 0 0 0 0 0 0.0228 0 0 0 0 0 0.015 0 0 0 0 -0.0067 0.0925 -0.0113 0 0 0 0 0.0247 0 0 0 0 0 0.0221 0 0 0 0 0 0.018 0 0 0 0 -0.0066 0.0935 -0.0272 0 0 0 0 0.0163 0 0 0 0 0 0.0171 0 0 0 0 0 0.018 0 0 0 0 -1.19209e-05 25.7619 0 0.0324884 1.17394e-06 1.07418 -17.359 0 4.76837e-05 83.6541 24.2166 -5.54312 -27.3079 8.9407e-06 0 2.75629e-06 7.33712e-08 28.3169 -25.2677 0 -7.15256e-05 6.50419 -0.0034424 0.585279 -0.0062 0.0497 0.0339 0 0 0 0 0.0215 0 0 0 0 0 0.022 0 0 0 0 0 0.017 0 0 0 0 0.0068 0.0873 0.0207 0 0 0 0 0.0267 0 0 0 0 0 0.0213 0 0 0 0 0 0.018 0 0 0 0 0.0067 0.0922 0.0055 0 0 0 0 0.0266 0 0 0 0 0 0.0228 0 0 0 0 0 0.015 0 0 0 0 0.0067 0.0925 -0.0113 0 0 0 0 0.0247 0 0 0 0 0 0.0221 0 0 0 0 0 0.018 0 0 0 0 0.0066 0.0935 -0.0272 0 0 0 0 0.0163 0 0 0 0 0 0.0171 0 0 0 0 0 0.018 0 0 0 0 -1.19209e-05 25.7619 0 9.18811 8.10603 -1.30657 -5.96046e-06 27.4445 4.76837e-05 1.15259e-05 -1.06722e-05 0 
69.6393 41.6014 -265.749 14.6194 32.7761 -31.913 7.78456 -5.74954 4.15545 17.7016 -33.8611 9.46545 1.78814e-05 -50.2427 0 -1.21327 13.9884 -8.79867e-06 -5.96046e-06 -41.662 0 3.14876 -8.40274 2.22814 -7.33988 -6.12317 5.04868 -13.6488 -31.5915 -5.08104 -2.38419e-05 -51.2339 -7.15256e-05 4.7055 3.52331 -0.289823 1.78814e-05 -41.4194 7.15256e-05 -12.2031 -11.9243 -9.58325 2.38419e-05 5.10325 -5.10325 1.27851 -34.6814 0.968119 0 25.7619 -2.38419e-05 0.489578 1.00318e-05 -1.2252 16.5973 1.78814e-05 7.15256e-05 -62.5058 57.1376 -6.70551 26.896 4.76837e-05 -3.57628e-05 5.84613e-06 8.11085e-06 -25.9498 27.4165 2.38419e-05 2.38419e-05 -3.46756 0.0452482 -2.0105 0.0062 0.0497 0.0339 0 0 0 0 0.0215 0 0 0 0 0 0.022 0 0 0 0 0 0.017 0 0 0 0 -0.0068 0.0873 0.0207 0 0 0 0 0.0267 0 0 0 0 0 0.0213 0 0 0 0 0 0.018 0 0 0 0 -0.0067 0.0922 0.0055 0 0 0 0 0.0266 0 0 0 0 0 0.0228 0 0 0 0 0 0.015 0 0 0 0 -0.0067 0.0925 -0.0113 0 0 0 0 0.0247 0 0 0 0 0 0.0221 0 0 0 0 0 0.018 0 0 0 0 -0.0066 0.0935 -0.0272 0 0 0 0 0.0163 0 0 0 0 0 0.0171 0 0 0 0 0 0.018 0 0 0 0 0 25.7619 -2.38419e-05 0.0616222 -5.22936e-06 1.17204 -17.3498 1.78814e-05 -4.76837e-05 83.4329 22.208 -5.51952 -27.334 5.96046e-06 2.38419e-05 3.61108e-06 3.84198e-06 28.8218 -24.6418 5.96046e-06 -4.76837e-05 6.56878 0.00618478 1.0904 -0.0062 0.0497 0.0339 0 0 0 0 0.0215 0 0 0 0 0 0.022 0 0 0 0 0 0.017 0 0 0 0 0.0068 0.0873 0.0207 0 0 0 0 0.0267 0 0 0 0 0 0.0213 0 0 0 0 0 0.018 0 0 0 0 0.0067 0.0922 0.0055 0 0 0 0 0.0266 0 0 0 0 0 0.0228 0 0 0 0 0 0.015 0 0 0 0 0.0067 0.0925 -0.0113 0 0 0 0 0.0247 0 0 0 0 0 0.0221 0 0 0 0 0 0.018 0 0 0 0 0.0066 0.0935 -0.0272 0 0 0 0 0.0163 0 0 0 0 0 0.0171 0 0 0 0 0 0.018 0 0 0 0 0 25.7619 -2.38419e-05 9.24025 7.96696 -1.29173 -5.36442e-05 27.4361 4.76837e-05 9.17807e-06 -1.32335e-05 3.41509e-06 
69.6393 41.6014 -265.749 14.6194 32.7761 -31.913 7.78456 -5.74954 4.15545 17.7016 -33.8611 9.46545 1.78814e-05 -50.2427 0 -1.21327 13.9884 -8.79867e-06 -5.96046e-06 -41.662 0 3.14876 -8.40274 2.22814 -7.33988 -6.12317 5.04868 -13.6488 -31.5915 -5.08104 -2.38419e-05 -51.2339 -7.15256e-05 4.7055 3.52331 -0.289823 1.78814e-05 -41.4194 7.15256e-05 -12.2031 -11.9243 -9.58325 2.38419e-05 5.10325 -5.10325 1.27851 -34.6814 0.968119 0 25.7619 -2.38419e-05 0.489578 1.00318e-05 -1.2252 16.5973 1.78814e-05 7.15256e-05 -62.5058 57.1376 -6.70551 26.896 4.76837e-05 -3.57628e-05 5.84613e-06 8.11085e-06 -25.9498 27.4165 2.38419e-05 2.38419e-05 -3.46756 0.0452482 -2.0105 0.0062 0.0497 0.0339 0 0 0 0 0.0215 0 0 0 0 0 0.022 0 0 0 0 0 0.017 0 0 0 0 -0.0068 0.0873 0.0207 0 0 0 0 0.0267 0 0 0 0 0 0.0213 0 0 0 0 0 0.018 0 0 0 0 -0.0067 0.0922 0.0055 0 0 0 0 0.0266 0 0 0 0 0 0.0228 0 0 0 0 0 0.015 0 0 0 0 -0.0067 0.0925 -0.0113 0 0 0 0 0.0247 0 0 0 0 0 0.0221 0 0 0 0 0 0.018 0 0 0 0 -0.0066 0.0935 -0.0272 0 0 0 0 0.0163 0 0 0 0 0 0.0171 0 0 0 0 0 0.018 0 0 0 0 0 25.7619 -2.38419e-05 0.0616222 -5.22936e-06 1.17204 -17.3498 1.78814e-05 -4.76837e-05 83.4329 22.208 -5.51952 -27.334 5.96046e-06 2.38419e-05 3.61108e-06 3.84198e-06 28.8218 -24.6418 5.96046e-06 -4.76837e-05 6.56878 0.00618478 1.0904 -0.0062 0.0497 0.0339 0 0 0 0 0.0215 0 0 0 0 0 0.022 0 0 0 0 0 0.017 0 0 0 0 0.0068 0.0873 0.0207 0 0 0 0 0.0267 0 0 0 0 0 0.0213 0 0 0 0 0 0.018 0 0 0 0 0.0067 0.0922 0.0055 0 0 0 0 0.0266 0 0 0 0 0 0.0228 0 0 0 0 0 0.015 0 0 0 0 0.0067 0.0925 -0.0113 0 0 0 0 0.0247 0 0 0 0 0 0.0221 0 0 0 0 0 0.018 0 0 0 0 0.0066 0.0935 -0.0272 0 0 0 0 0.0163 0 0 0 0 0 0.0171 0 0 0 0 0 0.018 0 0 0 0 0 25.7619 -2.38419e-05 9.24025 7.96696 -1.29173 -5.36442e-05 27.4361 4.76837e-05 9.17807e-06 -1.32335e-05 3.41509e-06 
